<?xml version="1.0" standalone="no"?>
<!DOCTYPE svg PUBLIC "-//W3C//DTD SVG 20010904//EN"
 "http://www.w3.org/TR/2001/REC-SVG-20010904/DTD/svg10.dtd">
<svg version="1.0" xmlns="http://www.w3.org/2000/svg"
 width="644.000000pt" height="644.000000pt" viewBox="0 0 644.000000 644.000000"
 preserveAspectRatio="xMidYMid meet">
<metadata>
Created by potrace 1.14, written by Peter Selinger 2001-2017
</metadata>
<g transform="translate(0.000000,644.000000) scale(0.100000,-0.100000)"
fill="#000000" stroke="none">
<path d="M3105 4425 c-319 -50 -585 -274 -684 -575 -27 -82 -36 -142 -36 -255
l0 -90 25 3 c14 1 75 5 135 7 190 7 348 -38 490 -139 57 -41 152 -132 167
-160 6 -11 11 -125 12 -282 l1 -262 -42 -21 c-53 -26 -76 -60 -75 -113 1 -55
22 -82 113 -143 73 -49 90 -74 70 -104 -13 -20 -83 -16 -137 8 l-46 21 6 -61
c3 -34 7 -63 9 -65 2 -2 21 -7 43 -10 147 -27 244 29 244 141 0 64 -27 96
-131 156 -62 36 -79 60 -59 84 17 20 57 18 107 -4 46 -22 49 -19 48 44 0 36
-3 40 -35 50 -19 5 -39 13 -45 17 -6 4 -10 103 -9 266 0 290 -4 270 79 355 87
89 206 158 342 199 76 22 277 33 353 18 25 -4 46 -7 48 -5 2 1 3 40 4 86 2
313 -168 593 -452 746 -153 83 -362 116 -545 88z"/>
<path d="M2531 3463 c-2 -56 42 -140 146 -276 72 -94 172 -175 253 -207 19 -7
40 -17 45 -21 27 -20 205 -55 205 -40 0 4 -21 11 -47 14 -140 16 -311 107
-398 212 -22 26 -54 64 -71 84 -51 58 -82 115 -115 206 -11 31 -18 41 -18 28z"/>
<path d="M2412 3462 c-15 -2 -22 -9 -18 -17 3 -8 10 -33 16 -57 20 -71 67
-158 141 -254 89 -117 151 -175 249 -234 127 -77 369 -144 383 -107 9 23 -6
34 -50 41 -85 11 -170 39 -263 84 -78 38 -110 61 -177 128 -46 45 -83 86 -83
91 0 4 -11 20 -25 35 -45 49 -95 136 -121 215 -14 43 -27 78 -27 78 -1 1 -12
-1 -25 -3z"/>
<path d="M2470 3457 c0 -18 21 -79 49 -139 18 -40 52 -90 104 -154 9 -10 31
-38 50 -61 90 -110 241 -197 404 -233 102 -23 103 -23 103 -11 0 4 -32 13 -70
20 -90 14 -188 51 -270 101 -84 51 -142 106 -205 194 -11 15 -31 40 -44 54
-29 34 -101 183 -101 210 0 12 -4 24 -10 27 -5 3 -10 0 -10 -8z"/>
<path d="M2590 3454 c0 -29 63 -147 106 -199 116 -140 174 -188 281 -233 56
-24 157 -52 185 -52 32 0 19 16 -14 18 -48 3 -150 38 -216 73 -79 43 -134 89
-189 162 -26 34 -55 71 -65 81 -10 11 -18 25 -18 32 0 7 -4 14 -10 16 -5 2
-18 27 -28 56 -21 58 -32 75 -32 46z"/>
<path d="M2651 3458 c-2 -61 160 -273 254 -332 49 -31 142 -74 174 -81 9 -2
35 -8 59 -13 33 -8 42 -7 42 3 0 7 -8 12 -17 11 -24 -4 -139 32 -194 59 -65
33 -145 99 -173 143 -13 20 -36 52 -52 69 -16 18 -43 61 -61 95 -18 35 -32 55
-32 46z"/>
<path d="M3822 3458 c-5 -7 -28 -51 -50 -98 -46 -96 -94 -154 -166 -199 -46
-29 -117 -57 -161 -64 -27 -4 -118 -38 -130 -49 -15 -13 24 -9 53 6 16 8 57
22 92 31 36 9 90 29 120 43 68 33 158 122 188 185 12 26 32 68 44 95 12 26 24
50 26 55 5 11 -5 8 -16 -5z"/>
<path d="M3880 3460 c0 -5 -24 -58 -52 -117 -82 -168 -170 -245 -335 -292 -82
-23 -171 -55 -180 -64 -11 -12 20 -7 62 9 22 8 76 26 120 39 44 13 101 35 126
49 43 24 168 126 154 126 -3 0 8 20 25 44 16 25 30 47 30 50 0 3 16 40 35 82
39 84 39 84 25 84 -5 0 -10 -4 -10 -10z"/>
<path d="M3939 3463 c-2 -25 -12 -49 -60 -148 -43 -90 -65 -122 -120 -176 -66
-67 -172 -128 -247 -144 -44 -9 -191 -61 -200 -70 -11 -12 59 5 107 26 24 10
50 19 57 19 16 0 100 27 134 43 102 49 207 145 252 232 70 134 106 225 89 225
-6 0 -11 -3 -12 -7z"/>
<path d="M4000 3445 c-73 -174 -122 -263 -177 -325 -84 -92 -217 -170 -318
-187 -16 -3 -43 -11 -60 -18 -16 -8 -51 -19 -78 -26 -26 -6 -50 -15 -53 -20
-7 -13 52 0 125 27 35 13 70 24 78 24 29 0 149 54 205 92 60 40 126 105 163
160 48 72 139 272 132 290 -2 7 -10 0 -17 -17z"/>
<path d="M4047 3463 c-4 -3 -7 -14 -7 -23 0 -9 -16 -48 -35 -87 -19 -39 -35
-75 -35 -80 0 -5 -21 -42 -46 -83 -94 -153 -218 -243 -404 -294 -36 -10 -69
-22 -75 -26 -10 -7 -46 -18 -94 -26 -34 -7 -41 -12 -41 -35 0 -28 31 -25 162
17 174 56 217 74 296 127 102 69 176 159 244 297 70 144 87 198 67 211 -17 11
-24 11 -32 2z"/>
<path d="M2726 3418 c21 -42 134 -186 167 -215 54 -46 164 -96 250 -113 20 -4
37 -4 37 1 0 4 -25 13 -56 19 -58 12 -180 70 -222 105 -28 24 -156 193 -165
218 -4 9 -11 17 -17 17 -6 0 -4 -14 6 -32z"/>
<path d="M3716 3378 c-54 -120 -137 -186 -278 -223 -69 -18 -136 -47 -121 -52
6 -2 33 5 60 16 26 10 63 22 81 25 95 16 215 108 258 197 12 24 28 59 37 77 8
17 11 32 6 32 -5 0 -24 -33 -43 -72z"/>
<path d="M2791 3430 c-1 -15 91 -136 134 -177 56 -53 255 -134 255 -103 0 5
-6 10 -12 11 -48 3 -150 43 -198 77 -36 26 -100 92 -100 103 0 3 -10 17 -22
30 -13 14 -31 36 -40 49 -11 16 -17 20 -17 10z"/>
<path d="M3660 3389 c-43 -91 -132 -155 -244 -179 -31 -6 -66 -20 -78 -31
l-23 -19 40 14 c22 8 71 24 110 36 75 23 115 47 157 95 30 32 72 114 64 122
-3 3 -14 -14 -26 -38z"/>
<path d="M2900 3384 c0 -14 36 -62 70 -92 29 -26 149 -86 157 -78 3 3 -25 20
-61 37 -62 30 -93 55 -145 119 -11 14 -20 20 -21 14z"/>
<path d="M3566 3354 c-29 -35 -111 -84 -141 -84 -8 0 -15 -5 -15 -11 0 -13 30
-5 85 23 58 28 139 110 108 107 -5 0 -21 -16 -37 -35z"/>
<path d="M3699 2648 c-1 -25 -1 -147 0 -336 l1 -123 52 3 51 3 -1 124 0 123
26 -25 c15 -13 63 -58 107 -100 44 -41 98 -91 120 -112 l40 -36 3 237 c1 130
1 238 -1 240 -1 2 -24 5 -50 7 -37 3 -47 0 -48 -12 -1 -9 -1 -67 -2 -128 l0
-113 -56 52 c-31 29 -89 84 -130 122 -40 39 -79 77 -86 84 -19 17 -25 15 -26
-10z"/>
<path d="M2348 2650 c-12 -4 -14 -44 -14 -230 l1 -225 55 0 55 0 -1 88 c0 57
3 86 10 84 6 -2 37 -43 70 -90 l59 -87 58 0 c33 0 59 4 59 8 0 5 -29 48 -65
98 l-65 89 29 25 c38 32 51 60 51 105 0 89 -63 133 -197 138 -50 1 -97 0 -105
-3z m166 -92 c29 -13 40 -39 32 -72 -6 -25 -38 -43 -76 -42 -23 1 -25 5 -27
51 -1 28 0 56 2 63 5 15 36 16 69 0z"/>
<path d="M2766 2652 c-15 -3 -16 -24 -15 -233 l2 -229 144 0 143 0 0 49 0 49
-42 0 c-24 0 -64 1 -90 1 l-48 1 0 45 0 45 75 0 75 0 0 45 c0 29 -5 45 -12 46
-7 1 -40 2 -73 3 l-60 1 -3 42 -3 42 88 -2 87 -2 1 48 c1 26 -1 47 -4 48 -16
3 -250 4 -265 1z"/>
<path d="M3518 2652 l-38 -3 1 -230 1 -229 54 0 54 0 1 185 c0 102 1 201 1
220 0 60 -2 64 -19 62 -10 -1 -35 -3 -55 -5z"/>
<path d="M2648 2085 c-10 -10 15 -95 28 -95 6 0 17 14 23 30 5 17 12 30 15 30
4 0 5 -3 4 -7 -1 -5 1 -18 6 -30 13 -39 33 -26 43 27 11 57 -2 68 -20 18 l-11
-33 -6 29 c-7 41 -27 44 -38 4 l-10 -33 -7 33 c-7 30 -15 39 -27 27z"/>
<path d="M2802 2078 c-7 -7 -12 -24 -12 -38 0 -65 84 -68 95 -3 6 40 -54 70
-83 41z m53 -38 c0 -31 -31 -39 -40 -11 -8 26 2 43 23 39 11 -2 17 -13 17 -28z"/>
<path d="M2916 2077 c-28 -20 -18 -69 16 -81 22 -8 32 -6 47 8 48 43 -11 111
-63 73z m53 -25 c11 -20 -2 -42 -25 -42 -15 0 -25 25 -18 45 8 21 31 19 43 -3z"/>
<path d="M3017 2083 c-2 -5 -3 -26 -2 -48 1 -35 4 -40 25 -43 53 -6 88 55 47
83 -23 16 -63 20 -70 8z m58 -43 c0 -36 -29 -33 -33 3 -3 23 0 28 15 25 12 -2
18 -12 18 -28z"/>
<path d="M3180 2070 c-11 -11 -20 -23 -20 -28 0 -20 34 -52 55 -52 34 0 41 18
8 22 -22 2 -28 8 -28 28 0 20 6 26 28 28 15 2 25 8 22 13 -10 16 -44 10 -65
-11z"/>
<path d="M3270 2039 c0 -36 4 -49 13 -46 6 2 12 9 12 15 0 22 14 23 27 3 16
-25 33 -28 23 -3 -4 9 -8 30 -9 47 -1 26 -5 30 -33 32 l-33 3 0 -51z m50 21
c0 -5 -7 -10 -15 -10 -8 0 -15 5 -15 10 0 6 7 10 15 10 8 0 15 -4 15 -10z"/>
<path d="M3377 2083 c-4 -3 -7 -26 -7 -50 0 -41 1 -43 29 -43 17 0 33 5 36 10
4 6 -5 10 -19 10 -14 0 -26 5 -26 10 0 6 9 10 20 10 11 0 20 5 20 10 0 6 -9
10 -21 10 -11 0 -17 5 -14 10 3 6 15 10 26 10 11 0 17 5 14 10 -7 11 -48 14
-58 3z"/>
<path d="M3469 2044 c-20 -47 -19 -68 3 -46 15 15 45 15 50 0 2 -6 10 -8 17
-4 8 5 9 12 3 19 -5 7 -13 27 -17 45 -10 46 -32 40 -56 -14z m41 -4 c0 -5 -4
-10 -10 -10 -5 0 -10 5 -10 10 0 6 5 10 10 10 6 0 10 -4 10 -10z"/>
<path d="M3535 2080 c-3 -5 3 -10 15 -10 19 0 21 -5 18 -37 -2 -22 2 -38 10
-41 12 -4 16 14 12 51 -1 11 7 21 19 24 11 3 18 9 15 14 -7 12 -81 11 -89 -1z"/>
<path d="M3647 2083 c-4 -3 -7 -26 -7 -50 0 -62 24 -52 25 10 1 45 -3 55 -18
40z"/>
<path d="M3697 2070 c-33 -47 12 -97 62 -70 24 12 29 58 9 78 -18 18 -55 14
-71 -8z m57 -15 c8 -21 -3 -45 -20 -45 -8 0 -17 7 -20 15 -8 21 2 45 20 45 7
0 16 -7 20 -15z"/>
<path d="M3802 2039 c-1 -35 3 -49 11 -46 7 2 11 11 9 20 -5 27 15 28 27 1 17
-38 36 -24 39 30 2 36 0 47 -10 44 -7 -3 -12 -17 -11 -31 3 -35 -3 -34 -22 3
-24 47 -43 39 -43 -21z"/>
<path d="M3912 2078 c-14 -14 2 -48 23 -48 7 0 17 -5 21 -11 5 -8 -3 -10 -24
-7 -22 3 -29 1 -25 -9 6 -15 41 -17 62 -4 19 12 4 51 -20 51 -10 0 -19 5 -19
10 0 6 12 10 26 10 14 0 23 4 19 10 -8 14 -48 13 -63 -2z"/>
</g>
</svg>
